<svg width="45" height="45" viewBox="0 0 45 45" fill="none" xmlns="http://www.w3.org/2000/svg">
<path d="M40.7812 4.21875H39.375V3.51562C39.375 2.95618 39.1528 2.41966 38.7572 2.02407C38.3616 1.62849 37.8251 1.40625 37.2656 1.40625C36.7062 1.40625 36.1697 1.62849 35.7741 2.02407C35.3785 2.41966 35.1562 2.95618 35.1562 3.51562V4.21875H32.3438V3.51562C32.3438 2.95618 32.1215 2.41966 31.7259 2.02407C31.3303 1.62849 30.7938 1.40625 30.2344 1.40625C29.6749 1.40625 29.1384 1.62849 28.7428 2.02407C28.3472 2.41966 28.125 2.95618 28.125 3.51562V4.21875H25.3125V3.51562C25.3125 2.95618 25.0903 2.41966 24.6947 2.02407C24.2991 1.62849 23.7626 1.40625 23.2031 1.40625C22.6437 1.40625 22.1072 1.62849 21.7116 2.02407C21.316 2.41966 21.0938 2.95618 21.0938 3.51562V4.21875H18.2812V3.51562C18.2812 2.95618 18.059 2.41966 17.6634 2.02407C17.2678 1.62849 16.7313 1.40625 16.1719 1.40625C15.6124 1.40625 15.0759 1.62849 14.6803 2.02407C14.2847 2.41966 14.0625 2.95618 14.0625 3.51562V4.21875H12.6562C11.9106 4.21959 11.1957 4.51617 10.6684 5.04344C10.1412 5.5707 9.84459 6.28559 9.84375 7.03125V19.6875H11.25V13.3594H42.1875V26.0156H37.9688C37.2231 26.0165 36.5082 26.313 35.9809 26.8403C35.4537 27.3676 35.1571 28.0825 35.1562 28.8281V33.0469H25.3125V34.4531H40.7812C41.2752 34.4535 41.7604 34.323 42.1875 34.0748V34.4531C42.1871 34.826 42.0388 35.1834 41.7751 35.447C41.5115 35.7106 41.1541 35.8589 40.7812 35.8594H24.6094V37.2656H40.7812C41.2752 37.266 41.7604 37.1355 42.1875 36.8873V37.2656C42.1871 37.6385 42.0388 37.9959 41.7751 38.2595C41.5115 38.5231 41.1541 38.6714 40.7812 38.6719H23.2031V40.0781H40.7812C41.5269 40.0773 42.2418 39.7807 42.7691 39.2534C43.2963 38.7262 43.5929 38.0113 43.5938 37.2656V7.03125C43.5929 6.28559 43.2963 5.5707 42.7691 5.04344C42.2418 4.51617 41.5269 4.21959 40.7812 4.21875ZM36.5625 3.51562C36.5625 3.32914 36.6366 3.1503 36.7684 3.01844C36.9003 2.88658 37.0791 2.8125 37.2656 2.8125C37.4521 2.8125 37.6309 2.88658 37.7628 3.01844C37.8947 3.1503 37.9688 3.32914 37.9688 3.51562V6.32812C37.9688 6.51461 37.8947 6.69345 37.7628 6.82531C37.6309 6.95717 37.4521 7.03125 37.2656 7.03125C37.0791 7.03125 36.9003 6.95717 36.7684 6.82531C36.6366 6.69345 36.5625 6.51461 36.5625 6.32812V3.51562ZM29.5312 3.51562C29.5312 3.32914 29.6053 3.1503 29.7372 3.01844C29.8691 2.88658 30.0479 2.8125 30.2344 2.8125C30.4209 2.8125 30.5997 2.88658 30.7316 3.01844C30.8634 3.1503 30.9375 3.32914 30.9375 3.51562V6.32812C30.9375 6.51461 30.8634 6.69345 30.7316 6.82531C30.5997 6.95717 30.4209 7.03125 30.2344 7.03125C30.0479 7.03125 29.8691 6.95717 29.7372 6.82531C29.6053 6.69345 29.5312 6.51461 29.5312 6.32812V3.51562ZM22.5 3.51562C22.5 3.32914 22.5741 3.1503 22.7059 3.01844C22.8378 2.88658 23.0166 2.8125 23.2031 2.8125C23.3896 2.8125 23.5684 2.88658 23.7003 3.01844C23.8322 3.1503 23.9062 3.32914 23.9062 3.51562V6.32812C23.9062 6.51461 23.8322 6.69345 23.7003 6.82531C23.5684 6.95717 23.3896 7.03125 23.2031 7.03125C23.0166 7.03125 22.8378 6.95717 22.7059 6.82531C22.5741 6.69345 22.5 6.51461 22.5 6.32812V3.51562ZM15.4688 3.51562C15.4688 3.32914 15.5428 3.1503 15.6747 3.01844C15.8066 2.88658 15.9854 2.8125 16.1719 2.8125C16.3584 2.8125 16.5372 2.88658 16.6691 3.01844C16.8009 3.1503 16.875 3.32914 16.875 3.51562V6.32812C16.875 6.51461 16.8009 6.69345 16.6691 6.82531C16.5372 6.95717 16.3584 7.03125 16.1719 7.03125C15.9854 7.03125 15.8066 6.95717 15.6747 6.82531C15.5428 6.69345 15.4688 6.51461 15.4688 6.32812V3.51562ZM11.25 11.9531V7.03125C11.2504 6.65842 11.3987 6.301 11.6624 6.03737C11.926 5.77374 12.2834 5.62544 12.6562 5.625H14.0625V6.32812C14.0625 6.88757 14.2847 7.42409 14.6803 7.81968C15.0759 8.21526 15.6124 8.4375 16.1719 8.4375C16.7313 8.4375 17.2678 8.21526 17.6634 7.81968C18.059 7.42409 18.2812 6.88757 18.2812 6.32812V5.625H21.0938V6.32812C21.0938 6.88757 21.316 7.42409 21.7116 7.81968C22.1072 8.21526 22.6437 8.4375 23.2031 8.4375C23.7626 8.4375 24.2991 8.21526 24.6947 7.81968C25.0903 7.42409 25.3125 6.88757 25.3125 6.32812V5.625H28.125V6.32812C28.125 6.88757 28.3472 7.42409 28.7428 7.81968C29.1384 8.21526 29.6749 8.4375 30.2344 8.4375C30.7938 8.4375 31.3303 8.21526 31.7259 7.81968C32.1215 7.42409 32.3438 6.88757 32.3438 6.32812V5.625H35.1562V6.32812C35.1562 6.88757 35.3785 7.42409 35.7741 7.81968C36.1697 8.21526 36.7062 8.4375 37.2656 8.4375C37.8251 8.4375 38.3616 8.21526 38.7572 7.81968C39.1528 7.42409 39.375 6.88757 39.375 6.32812V5.625H40.7812C41.1541 5.62544 41.5115 5.77374 41.7751 6.03737C42.0388 6.301 42.1871 6.65842 42.1875 7.03125V11.9531H11.25ZM36.5625 28.8281C36.5629 28.4553 36.7112 28.0979 36.9749 27.8342C37.2385 27.5706 37.5959 27.4223 37.9688 27.4219H41.1932L36.5625 32.0526V28.8281ZM40.7812 33.0469H37.5568L42.1875 28.4162V31.6406C42.1871 32.0135 42.0388 32.3709 41.7751 32.6345C41.5115 32.8981 41.1541 33.0464 40.7812 33.0469Z" fill="#004A49"/>
<path d="M23.1861 28.3771L25.2135 24.9688C25.283 24.852 25.3172 24.7175 25.3118 24.5817C25.3064 24.4458 25.2618 24.3144 25.1833 24.2034C25.1048 24.0924 24.9958 24.0066 24.8695 23.9562C24.7432 23.9059 24.6051 23.8933 24.4717 23.9199L20.8554 24.6414C18.9598 22.6233 16.3865 21.3751 13.6281 21.1357C10.8696 20.8962 8.11978 21.6824 5.90477 23.3437L6.7494 24.468C8.73735 22.9774 11.2155 22.2936 13.6865 22.5539C16.1576 22.8142 18.4388 23.9993 20.0726 25.8715C20.154 25.9647 20.2585 26.0347 20.3757 26.0746C20.4928 26.1144 20.6184 26.1226 20.7397 26.0984L23.197 25.6081L21.8009 27.9548C21.745 28.0488 21.7118 28.1546 21.7039 28.2636C21.6961 28.3727 21.7138 28.4821 21.7556 28.5832C22.4305 30.2158 22.6536 32 22.4015 33.7486C22.1495 35.4972 21.4315 37.1458 20.323 38.5214C19.2145 39.897 17.7562 40.9489 16.1012 41.5669C14.4461 42.1849 12.6552 42.3462 10.9164 42.0338C9.1776 41.7214 7.55488 40.9468 6.21845 39.7913C4.88203 38.6359 3.88115 37.1421 3.3208 35.4666C2.76044 33.7912 2.66126 31.9958 3.03364 30.2689C3.40603 28.5419 4.23627 26.9469 5.43728 25.6513L4.40632 24.6951C3.04562 26.1645 2.10196 27.9707 1.67284 29.9269C1.24372 31.8831 1.34472 33.9184 1.96538 35.8225C2.58605 37.7266 3.70388 39.4304 5.20337 40.758C6.70287 42.0855 8.52964 42.9886 10.4949 43.3739C12.4602 43.7592 14.4928 43.6128 16.3825 42.9498C18.2723 42.2868 19.9508 41.1311 21.2445 39.6024C22.5382 38.0736 23.4003 36.2271 23.7416 34.2537C24.0829 32.2803 23.8912 30.2515 23.1861 28.3771Z" fill="#004A49"/>
<path d="M6.32812 35.1562H9.84375V38.6719C9.84375 38.8584 9.91783 39.0372 10.0497 39.1691C10.1816 39.3009 10.3604 39.375 10.5469 39.375H14.7656C14.9521 39.375 15.1309 39.3009 15.2628 39.1691C15.3947 39.0372 15.4688 38.8584 15.4688 38.6719V35.1562H18.9844C19.1709 35.1562 19.3497 35.0822 19.4816 34.9503C19.6134 34.8184 19.6875 34.6396 19.6875 34.4531V30.2344C19.6875 30.0479 19.6134 29.8691 19.4816 29.7372C19.3497 29.6053 19.1709 29.5312 18.9844 29.5312H15.4688V26.0156C15.4688 25.8291 15.3947 25.6503 15.2628 25.5184C15.1309 25.3866 14.9521 25.3125 14.7656 25.3125H10.5469C10.3604 25.3125 10.1816 25.3866 10.0497 25.5184C9.91783 25.6503 9.84375 25.8291 9.84375 26.0156V29.5312H6.32812C6.14164 29.5312 5.9628 29.6053 5.83094 29.7372C5.69908 29.8691 5.625 30.0479 5.625 30.2344V34.4531C5.625 34.6396 5.69908 34.8184 5.83094 34.9503C5.9628 35.0822 6.14164 35.1562 6.32812 35.1562ZM7.03125 30.9375H10.5469C10.7334 30.9375 10.9122 30.8634 11.0441 30.7316C11.1759 30.5997 11.25 30.4209 11.25 30.2344V26.7188H14.0625V30.2344C14.0625 30.4209 14.1366 30.5997 14.2684 30.7316C14.4003 30.8634 14.5791 30.9375 14.7656 30.9375H18.2812V33.75H14.7656C14.5791 33.75 14.4003 33.8241 14.2684 33.9559C14.1366 34.0878 14.0625 34.2666 14.0625 34.4531V37.9688H11.25V34.4531C11.25 34.2666 11.1759 34.0878 11.0441 33.9559C10.9122 33.8241 10.7334 33.75 10.5469 33.75H7.03125V30.9375Z" fill="#004A49"/>
<path d="M20.3906 16.1719H21.7969V17.5781H20.3906V16.1719Z" fill="#004A49"/>
<path d="M14.7656 16.1719H16.1719V17.5781H14.7656V16.1719Z" fill="#004A49"/>
<path d="M31.6406 16.1719H33.0469V17.5781H31.6406V16.1719Z" fill="#004A49"/>
<path d="M37.2656 16.1719H38.6719V17.5781H37.2656V16.1719Z" fill="#004A49"/>
<path d="M26.0156 16.1719H27.4219V17.5781H26.0156V16.1719Z" fill="#004A49"/>
<path d="M20.3906 21.7969H21.7969V23.2031H20.3906V21.7969Z" fill="#004A49"/>
<path d="M31.6406 21.7969H33.0469V23.2031H31.6406V21.7969Z" fill="#004A49"/>
<path d="M37.2656 21.7969H38.6719V23.2031H37.2656V21.7969Z" fill="#004A49"/>
<path d="M26.0156 21.7969H27.4219V23.2031H26.0156V21.7969Z" fill="#004A49"/>
<path d="M31.6406 27.4219H33.0469V28.8281H31.6406V27.4219Z" fill="#004A49"/>
<path d="M26.0156 27.4219H27.4219V28.8281H26.0156V27.4219Z" fill="#004A49"/>
</svg>
