<svg width="45" height="45" viewBox="0 0 45 45" fill="none" xmlns="http://www.w3.org/2000/svg">
<path d="M13.7109 32.5198C13.2258 32.5198 12.832 32.9135 12.832 33.3987C12.832 33.8838 13.2258 34.2776 13.7109 34.2776C14.1961 34.2776 14.5898 33.8838 14.5898 33.3987C14.5898 32.9135 14.1961 32.5198 13.7109 32.5198Z" fill="#004A49"/>
<path d="M39.5631 16.7001L44.7425 11.5208C44.9603 11.3029 45.0481 10.9869 44.974 10.6879C44.9 10.3888 44.6746 10.1504 44.3802 10.0595L31.7679 6.16686C30.6309 2.51228 27.2517 0.000976562 23.3786 0.000976562C19.7783 0.000976562 16.5583 2.19517 15.2256 5.50513L0.616964 10.0603C0.323321 10.1519 0.0988486 10.3904 0.0252842 10.6892C-0.0482803 10.9878 0.0396104 11.3034 0.25714 11.5209L5.57268 16.8364L2.22018 22.4241C2.08298 22.6527 2.05705 22.9312 2.14951 23.1812C2.24197 23.4313 2.44298 23.6258 2.69593 23.7101L7.5583 25.3308V38.8485C7.5583 39.2149 7.78559 39.5428 8.12862 39.6715C11.1017 40.7863 22.1482 44.9293 22.2076 44.9503C22.3819 45.0117 22.5784 45.0201 22.7699 44.9581C22.7724 44.9572 22.7751 44.9567 22.7776 44.9558L38.5979 39.6824C38.9568 39.5627 39.1989 39.2268 39.1989 38.8485V24.9689L44.3843 23.3394C44.6775 23.2473 44.9013 23.0087 44.9745 22.7102C45.0476 22.4118 44.9596 22.0968 44.7424 21.8794L39.5631 16.7001ZM32.1677 8.79004C32.1677 8.56671 32.1583 8.34391 32.1415 8.12181L42.4681 11.3092L38.0826 15.6946L30.9171 13.3063C31.7285 11.9501 32.1677 10.3851 32.1677 8.79004ZM16.7277 6.50242C17.7033 3.66514 20.3762 1.75879 23.3786 1.75879C26.6131 1.75879 29.4184 3.94656 30.2005 7.07898C30.3395 7.6356 30.4099 8.21128 30.4099 8.79004C30.4099 10.4225 29.8681 11.9526 28.8429 13.2155C27.5002 14.8715 25.5086 15.8213 23.3786 15.8213C21.0762 15.8213 18.9167 14.6912 17.6013 12.7975C16.781 11.6192 16.3474 10.2334 16.3474 8.79004C16.3474 8.00509 16.4752 7.23543 16.7277 6.50242ZM2.52788 11.3057L14.6832 7.51554C14.6222 7.93548 14.5896 8.36087 14.5896 8.78995C14.5896 10.2051 14.9248 11.5757 15.5637 12.8124L6.91679 15.6946L2.52788 11.3057ZM4.29123 22.3889L7.07033 17.7569L21.1823 22.4609L18.4033 27.0929C16.8964 26.5906 5.90016 22.9251 4.29123 22.3889ZM21.6208 42.8538L9.31611 38.2395V25.9168C18.9973 29.1267 18.5245 29.0287 18.7941 29.0287C19.0962 29.0287 19.3856 28.8723 19.5479 28.6019L21.6208 25.1468V42.8538ZM22.4997 21.0472L9.45885 16.7003L16.5599 14.3334C18.2219 16.3766 20.7239 17.5791 23.3786 17.5791C25.8345 17.5791 28.1425 16.5684 29.8027 14.7878L35.5406 16.7002L22.4997 21.0472ZM37.4411 38.2151L23.3786 42.9026V24.479L26.4944 28.3734C26.7211 28.6567 27.0984 28.7714 27.4443 28.6628L37.4411 25.5213V38.2151ZM27.4912 26.8056L23.9735 22.4088L38.0826 17.7058L42.474 22.0971L27.4912 26.8056Z" fill="#004A49"/>
<path d="M19.2929 34.4706L17.3382 33.7376C16.8837 33.5672 16.3771 33.7974 16.2066 34.2519C16.0362 34.7065 16.2664 35.2131 16.7209 35.3835L18.6756 36.1165C19.1311 36.2872 19.637 36.0558 19.8072 35.6021C19.9776 35.1477 19.7473 34.641 19.2929 34.4706Z" fill="#004A49"/>
<path d="M19.2928 38.2251L14.0194 36.2476C13.5649 36.0772 13.0583 36.3074 12.8878 36.7619C12.7173 37.2164 12.9476 37.7231 13.4021 37.8935L18.6755 39.8711C18.7772 39.9092 18.8815 39.9273 18.984 39.9273C19.3399 39.9273 19.6748 39.7096 19.8071 39.3567C19.9776 38.9022 19.7474 38.3956 19.2928 38.2251Z" fill="#004A49"/>
<path d="M28.3949 5.53088C28.0516 5.18758 27.4951 5.18767 27.1518 5.53088L22.4999 10.1829L21.3635 9.04659C21.0203 8.70338 20.4638 8.70338 20.1205 9.04659C19.7772 9.38981 19.7773 9.94633 20.1205 10.2896L21.8784 12.0474C22.2216 12.3906 22.7781 12.3906 23.1214 12.0474L28.3949 6.77392C28.7381 6.4307 28.7381 5.87418 28.3949 5.53088Z" fill="#004A49"/>
</svg>
