<svg width="25" height="25" viewBox="0 0 25 25" fill="none" xmlns="http://www.w3.org/2000/svg">
<path d="M6.25 3.75C6.25 5.0775 5.3625 6.22 3.74875 6.22C2.23 6.22 1.25 5.1425 1.25 3.815C1.25 2.4525 2.2 1.25 3.75 1.25C5.3 1.25 6.22 2.3875 6.25 3.75ZM1.25 23.75V7.5H6.25V23.75H1.25Z" fill="white"/>
<path d="M8.75006 13.055C8.75006 11.1238 8.68631 9.51002 8.62256 8.11627H13.1151L13.3376 10.27H13.4326C14.0651 9.25627 15.6151 7.77002 18.2101 7.77002C21.3751 7.77002 23.7501 9.88877 23.7501 14.4475V23.75H18.7501V15.1738C18.7501 13.1813 17.9913 11.6613 16.2501 11.6613C14.9226 11.6613 14.2576 12.7363 13.9088 13.6225C13.7813 13.94 13.7501 14.3825 13.7501 14.8263V23.75H8.75006V13.055Z" fill="white"/>
</svg>
