<svg width="45" height="45" viewBox="0 0 45 45" fill="none" xmlns="http://www.w3.org/2000/svg">
<path d="M6.15405 25.5363C7.73068 25.5363 9.30758 24.9368 10.508 23.7378L23.6063 10.6391C26.0037 8.23855 26.0037 4.33266 23.6063 1.93212C23.6062 1.93203 23.606 1.93185 23.6059 1.93177C22.4469 0.772803 20.9007 0.134521 19.2521 0.134521C17.6035 0.134521 16.0573 0.772803 14.8983 1.93177L1.80043 15.03C-0.600202 17.4307 -0.600202 21.337 1.80078 23.7381C3.00105 24.937 4.57742 25.5363 6.15405 25.5363ZM16.1413 3.17475C16.9682 2.34785 18.073 1.89248 19.2521 1.89248C20.4311 1.89248 21.5357 2.34776 22.3625 3.1744C24.076 4.88999 24.076 7.6814 22.3628 9.39664L16.4354 15.3243L10.2138 9.10246L16.1413 3.17475ZM3.04342 16.273L8.97086 10.3454L15.1925 16.5672L9.26539 22.4944C7.5498 24.2079 4.75848 24.2078 3.04342 22.4948C1.32818 20.7794 1.32809 17.9883 3.04342 16.273Z" fill="#004A49"/>
<path d="M42.2579 33.1496L28.0215 21.2996C26.7623 20.2514 25.1645 19.7568 23.523 19.9067C21.8804 20.0567 20.3989 20.8332 19.3517 22.0926C18.3026 23.3514 17.8074 24.9489 17.9575 26.5909C18.1076 28.2335 18.8845 29.7153 20.1447 30.7632L34.3813 42.6157C35.4923 43.5404 36.867 44.0341 38.3032 44.0341C38.4946 44.0341 38.6871 44.0253 38.8801 44.0076C40.5221 43.8573 42.0035 43.0812 43.0514 41.8222C43.0515 41.8221 43.0516 41.8219 43.0517 41.8218C45.2221 39.2115 44.8661 35.3211 42.2579 33.1496ZM21.269 29.4119C20.3698 28.6642 19.8154 27.6055 19.7081 26.431C19.6007 25.2569 19.9537 24.1159 20.7028 23.2172C21.45 22.3184 22.5083 21.7645 23.6828 21.6572C23.8208 21.6447 23.9582 21.6384 24.095 21.6384C25.1219 21.6384 26.104 21.9908 26.8967 22.6507L33.3394 28.0134L27.7115 34.7756L21.269 29.4119ZM41.6999 40.698C40.9524 41.5959 39.8941 42.1497 38.7198 42.2572C37.5454 42.3645 36.4039 42.0122 35.506 41.2647L29.0625 35.9003L34.6906 29.138L41.1332 34.5006C42.9969 36.0523 43.2512 38.8324 41.6999 40.698Z" fill="#004A49"/>
<path d="M8.85793 27.1975C6.49808 27.1975 4.27956 28.1165 2.61091 29.7852C-0.833194 33.2294 -0.833194 38.8335 2.61091 42.2776C4.27956 43.9464 6.49817 44.8654 8.85793 44.8654C11.2179 44.8654 13.4359 43.9463 15.1031 42.2776C18.5472 38.8335 18.5472 33.2294 15.1033 29.7854C13.4359 28.1166 11.2179 27.1975 8.85793 27.1975ZM8.85793 43.1076C6.96769 43.1076 5.19058 42.3715 3.8539 41.0348C1.81152 38.9925 1.28284 36.0023 2.26452 33.4674L11.4259 42.6268C10.6181 42.9412 9.7511 43.1076 8.85793 43.1076ZM13.8598 41.0349C13.5996 41.2953 13.3223 41.5321 13.0311 41.7459L3.14222 31.8591C3.35466 31.5685 3.59162 31.2905 3.8539 31.0283C4.11468 30.7675 4.39268 30.5303 4.68449 30.3163L14.5726 40.2025C14.36 40.4936 14.1226 40.7722 13.8598 41.0349ZM15.45 38.5939L6.29021 29.4358C7.09813 29.1216 7.96502 28.9554 8.85793 28.9554C10.748 28.9554 12.5244 29.6915 13.8601 31.0282C15.9019 33.0701 16.4307 36.0593 15.45 38.5939Z" fill="#004A49"/>
<path d="M36.1717 21.7857C38.5315 21.7857 40.7494 20.8667 42.4168 19.198C45.8609 15.7539 45.8609 10.1498 42.4171 6.70585C40.7496 5.03702 38.5316 4.11792 36.1717 4.11792C33.8118 4.11792 31.5933 5.03693 29.9246 6.70559C26.4805 10.1498 26.4805 15.7539 29.9246 19.198C31.5932 20.8667 33.8118 21.7857 36.1717 21.7857ZM42.7638 10.3894C43.7446 12.9239 43.2157 15.913 41.1738 17.955C41.1738 17.9551 41.1737 17.9551 41.1736 17.9551C39.8382 19.2917 38.0618 20.0278 36.1717 20.0278C35.2787 20.0278 34.4119 19.8616 33.604 19.5473L42.7638 10.3894ZM31.1676 7.94849C32.5043 6.61181 34.2813 5.8757 36.1717 5.8757C37.0647 5.8757 37.9315 6.04191 38.7393 6.3563L36.9485 8.14546C36.6051 8.48851 36.6049 9.04505 36.948 9.38845C37.1197 9.56028 37.3448 9.64615 37.5698 9.64615C37.7946 9.64615 38.0194 9.56045 38.191 9.38897L40.3447 7.23726C40.6361 7.4511 40.9136 7.68806 41.1738 7.94858C41.4366 8.21129 41.6739 8.48982 41.8865 8.78093L31.9983 18.667C31.7064 18.453 31.4284 18.2158 31.1676 17.9551C30.9054 17.6929 30.6685 17.4149 30.4561 17.1244L32.61 14.9726C32.9534 14.6295 32.9536 14.073 32.6105 13.7296C32.2673 13.3862 31.7109 13.3859 31.3675 13.7291L29.5785 15.5165C28.5966 12.9814 29.1252 9.99104 31.1676 7.94849Z" fill="#004A49"/>
<path d="M34.385 12.3465C34.5106 12.4093 34.644 12.439 34.7756 12.439C35.0991 12.439 35.4111 12.2595 35.5654 11.9509C35.7825 11.5167 35.6066 10.9888 35.1724 10.7717C34.7382 10.5546 34.2102 10.7306 33.9931 11.1647L33.9907 11.1698C33.7736 11.6039 33.9508 12.1294 34.385 12.3465Z" fill="#004A49"/>
</svg>
